<?xml version="1.0" encoding="iso-8859-1"?>
<!-- Generator: Adobe Illustrator 16.0.0, SVG Export Plug-In . SVG Version: 6.00 Build 0)  -->
<!DOCTYPE svg PUBLIC "-//W3C//DTD SVG 1.1//EN" "http://www.w3.org/Graphics/SVG/1.1/DTD/svg11.dtd">
<svg version="1.1" id="Capa_1" xmlns="http://www.w3.org/2000/svg" xmlns:xlink="http://www.w3.org/1999/xlink" x="0px" y="0px"
	 width="380.722px" height="380.721px" viewBox="0 0 380.722 380.721" style="enable-background:new 0 0 380.722 380.721;"
	 xml:space="preserve">
<g>
	<g>
		<path d="M259.178,96.226V36.512h41.084V0h-77.59v83.033c-0.034,0-0.081-0.023-0.116-0.023v37.668
			c47.288,13.931,81.924,57.681,81.924,109.407c0,62.928-51.192,114.131-114.119,114.131S76.236,293.012,76.236,230.084
			c0-51.703,34.6-95.418,81.83-109.384V83.033c0,0-0.012,0-0.023,0V1.145H80.448v36.512h41.083v58.57
			C73,121.258,39.725,171.823,39.725,230.084c0,83.062,67.58,150.637,150.636,150.637c83.062,0,150.637-67.574,150.637-150.637
			C340.997,171.823,307.721,121.258,259.178,96.226z"/>
		<path d="M191.075,336.78c58.25,0,105.457-47.207,105.457-105.451c-39.725,0-166.304,0-210.92,0
			C85.612,289.561,132.825,336.78,191.075,336.78z"/>
	</g>
</g>
<g>
</g>
<g>
</g>
<g>
</g>
<g>
</g>
<g>
</g>
<g>
</g>
<g>
</g>
<g>
</g>
<g>
</g>
<g>
</g>
<g>
</g>
<g>
</g>
<g>
</g>
<g>
</g>
<g>
</g>
</svg>
