<?xml version="1.0" encoding="iso-8859-1"?>
<!-- Generator: Adobe Illustrator 16.0.0, SVG Export Plug-In . SVG Version: 6.00 Build 0)  -->
<!DOCTYPE svg PUBLIC "-//W3C//DTD SVG 1.1//EN" "http://www.w3.org/Graphics/SVG/1.1/DTD/svg11.dtd">
<svg version="1.1" id="Capa_1" xmlns="http://www.w3.org/2000/svg" xmlns:xlink="http://www.w3.org/1999/xlink" x="0px" y="0px"
	 width="380.722px" height="380.721px" viewBox="0 0 380.722 380.721" style="enable-background:new 0 0 380.722 380.721;"
	 xml:space="preserve">
<g>
	<g>
		<path d="M320.745,118.092l-50.68-70.955h16.626c3.137,0,5.682-2.544,5.682-5.688V5.688c0-3.143-2.545-5.688-5.682-5.688H90.033
			c-3.119,0-5.652,2.51-5.687,5.629l-0.441,35.762c-0.012,1.522,0.569,2.975,1.638,4.055c1.063,1.075,2.527,1.69,4.037,1.69h17.463
			l-47.171,71.432c-0.633,0.929-0.953,2.021-0.953,3.131v253.328c0,3.148,2.544,5.693,5.688,5.693h251.515
			c3.138,0,5.682-2.545,5.682-5.693V121.404C321.803,120.213,321.431,119.057,320.745,118.092z M286.668,347.747H93.339V121.95
			l56.095-75.027l80.302,1.156l56.932,76.097V347.747z"/>
		<path d="M117.564,178.033v80.866c0,3.148,2.544,5.693,5.688,5.693h134.23c3.138,0,5.682-2.545,5.682-5.693v-80.866
			c0-3.137-2.544-5.688-5.682-5.688h-134.23C120.108,172.346,117.564,174.896,117.564,178.033z"/>
	</g>
</g>
<g>
</g>
<g>
</g>
<g>
</g>
<g>
</g>
<g>
</g>
<g>
</g>
<g>
</g>
<g>
</g>
<g>
</g>
<g>
</g>
<g>
</g>
<g>
</g>
<g>
</g>
<g>
</g>
<g>
</g>
</svg>
