<?xml version="1.0" encoding="iso-8859-1"?>
<!-- Generator: Adobe Illustrator 16.0.0, SVG Export Plug-In . SVG Version: 6.00 Build 0)  -->
<!DOCTYPE svg PUBLIC "-//W3C//DTD SVG 1.1//EN" "http://www.w3.org/Graphics/SVG/1.1/DTD/svg11.dtd">
<svg version="1.1" id="Capa_1" xmlns="http://www.w3.org/2000/svg" xmlns:xlink="http://www.w3.org/1999/xlink" x="0px" y="0px"
	 width="380.723px" height="380.723px" viewBox="0 0 380.723 380.723" style="enable-background:new 0 0 380.723 380.723;"
	 xml:space="preserve">
<g>
	<path d="M216.98,90.109c0.116-1.115-0.419-2.202-1.383-2.771c-0.976-0.558-2.185-0.535-3.114,0.082
		c0,0-139.371,96.336-209.188,149.021c-4.398,3.033-4.166,6.332-0.651,9.992c2.626,2.626,14.773,14.768,17.666,17.66
		c2.905,2.905,7.006,2.312,8.993,0.326c66.616-50.135,67.731-49.008,67.731-49.008l111.149-49.24
		c0.988-0.406,1.686-1.33,1.789-2.428L216.98,90.109z"/>
	<path d="M363.433,51.762c-0.499-0.686-1.302-1.127-2.149-1.174c-1.034-0.18-1.708,0.262-2.301,0.889l-19.089,19.885
		c-0.849,0.877-1.046,2.184-0.523,3.294c0.093,0.139,6.948,14.454,0.093,26.328c-4.984,7.518-17.253,9.545-26.246,8.993
		c-5.391-0.331-10.364-1.522-14-3.364c-1.069-0.546-2.371-0.372-3.277,0.453c-0.895,0.831-1.185,2.115-0.72,3.23l20.216,49.391
		c0.407,0.772,1.487,2.126,4.009,2.283c8.191,0.5,33.288-12.99,44.116-22.523C402.053,105.614,363.829,52.313,363.433,51.762z"/>
	<path d="M308.721,165.102l-20.31-52.47c0.022-0.511-0.059-1.022-0.291-1.476c-0.186-0.354-18.183-36.035-0.825-48.909
		c10.585-9.435,32.266-5.972,32.498-5.926c0.953,0.151,1.917-0.157,2.579-0.86l19.694-20.733c0.592-0.633,0.883-1.51,0.767-2.382
		s-0.604-1.638-1.348-2.103c-1.162-0.691-28.571-17.358-56.723-19.083c-21.495-1.313-37.447,6.35-47.416,22.767
		c-7.285,11.997-8.935,24.725-10.7,38.191c-0.407,3.143-0.837,6.355-1.348,9.853c-3.195,37.371-7.785,81.487-8.599,89.069
		l-61.044,113.642c-0.691,1.231-0.691,1.231-49.066,56.699c-2.603,2.661-3.09,5.902,0.082,9.074
		c2.213,2.208,14.482,14.477,17.242,17.23c2.759,2.765,5.176,2.835,8.354-0.663c54.276-63.252,175.93-198.981,175.93-198.981
		C308.907,167.24,309.104,166.089,308.721,165.102z M258.354,155.226c-9.504-0.581-16.742-8.761-16.15-18.253
		c0.593-9.492,8.761-16.736,18.265-16.144c9.504,0.581,16.731,8.755,16.15,18.253C276.026,148.574,267.846,155.807,258.354,155.226z
		"/>
</g>
<g>
</g>
<g>
</g>
<g>
</g>
<g>
</g>
<g>
</g>
<g>
</g>
<g>
</g>
<g>
</g>
<g>
</g>
<g>
</g>
<g>
</g>
<g>
</g>
<g>
</g>
<g>
</g>
<g>
</g>
</svg>
