<?xml version="1.0" encoding="iso-8859-1"?>
<!-- Generator: Adobe Illustrator 16.0.0, SVG Export Plug-In . SVG Version: 6.00 Build 0)  -->
<!DOCTYPE svg PUBLIC "-//W3C//DTD SVG 1.1//EN" "http://www.w3.org/Graphics/SVG/1.1/DTD/svg11.dtd">
<svg version="1.1" id="Capa_1" xmlns="http://www.w3.org/2000/svg" xmlns:xlink="http://www.w3.org/1999/xlink" x="0px" y="0px"
	 width="380.713px" height="380.713px" viewBox="0 0 380.713 380.713" style="enable-background:new 0 0 380.713 380.713;"
	 xml:space="preserve">
<g>
	<g>
		<path d="M34.556,204.833c-3.195-3.195-8.372-3.195-11.572,0L2.4,225.421c-3.201,3.195-3.201,8.365,0,11.572L142.278,376.87
			c3.201,3.207,8.389,3.207,11.578,0l20.594-20.588c3.201-3.207,3.201-8.389,0-11.584L34.556,204.833z"/>
		<path d="M252.603,58.165c-1.58-1.586-3.683-2.394-5.797-2.394c-1.731,0-3.463,0.546-4.95,1.667L59.065,196.339
			c-1.876,1.441-3.056,3.603-3.212,5.961c-0.151,2.358,0.714,4.671,2.382,6.344L170.616,321.02c0.052,0.046,0.087,0.081,0.122,0.128
			c1.604,1.592,3.701,2.404,5.792,2.404c2.097,0,4.188-0.801,5.785-2.404c0.64-0.65,1.15-1.359,1.534-2.139l140.336-179.107
			c2.533-3.265,2.266-7.913-0.662-10.84L252.603,58.165z M175.519,300.71l-96.847-96.854L245.945,76.749l58.907,58.907
			L175.519,300.71z"/>
		<path d="M378.306,40.208L341.939,3.841c-2.882-2.893-7.437-3.213-10.713-0.75l-58.279,43.959c-1.882,1.429-3.067,3.602-3.229,5.96
			c-0.163,2.371,0.697,4.688,2.37,6.367l50.704,50.681c0.022,0.035,0.081,0.07,0.115,0.122c3.207,3.201,8.377,3.201,11.572,0
			c0.674-0.68,1.209-1.441,1.604-2.248l42.989-57.001C381.513,47.667,381.21,43.101,378.306,40.208z"/>
	</g>
</g>
<g>
</g>
<g>
</g>
<g>
</g>
<g>
</g>
<g>
</g>
<g>
</g>
<g>
</g>
<g>
</g>
<g>
</g>
<g>
</g>
<g>
</g>
<g>
</g>
<g>
</g>
<g>
</g>
<g>
</g>
</svg>
