<?xml version="1.0" encoding="UTF-8" standalone="no"?>
<!-- Created with Inkscape (http://www.inkscape.org/) -->

<svg
   xmlns:dc="http://purl.org/dc/elements/1.1/"
   xmlns:cc="http://creativecommons.org/ns#"
   xmlns:rdf="http://www.w3.org/1999/02/22-rdf-syntax-ns#"
   xmlns:svg="http://www.w3.org/2000/svg"
   xmlns="http://www.w3.org/2000/svg"
   xmlns:sodipodi="http://sodipodi.sourceforge.net/DTD/sodipodi-0.dtd"
   xmlns:inkscape="http://www.inkscape.org/namespaces/inkscape"
   width="210mm"
   height="297mm"
   id="piezaDental"
   version="1.1"
   inkscape:version="0.48.5 r10040"
   sodipodi:docname="diente.svg">
  <defs
     id="defs26" />
  <sodipodi:namedview
     id="base"
     pagecolor="#ffffff"
     bordercolor="#666666"
     borderopacity="1.0"
     inkscape:pageopacity="0.0"
     inkscape:pageshadow="2"
     inkscape:zoom="1.394913"
     inkscape:cx="24.636828"
     inkscape:cy="888.84374"
     inkscape:document-units="px"
     inkscape:current-layer="layer1"
     showgrid="true"
     inkscape:snap-grids="false"
     inkscape:snap-to-guides="true"
     showguides="false"
     inkscape:window-width="1366"
     inkscape:window-height="706"
     inkscape:window-x="-8"
     inkscape:window-y="-8"
     inkscape:window-maximized="1">
    <inkscape:grid
       type="xygrid"
       id="grid6871"
       empspacing="5"
       visible="true"
       enabled="true"
       snapvisiblegridlinesonly="true" />
  </sodipodi:namedview>
  <metadata
     id="metadata7">
    <rdf:RDF>
      <cc:Work
         rdf:about="">
        <dc:format>image/svg+xml</dc:format>
        <dc:type
           rdf:resource="http://purl.org/dc/dcmitype/StillImage" />
        <dc:title />
      </cc:Work>
    </rdf:RDF>
  </metadata>
  <g
     inkscape:label="Capa 1"
     inkscape:groupmode="layer"
     id="layer1">
    <rect
       style="fill:none;stroke:#000000;stroke-width:3.70000005;stroke-linecap:butt;stroke-linejoin:bevel;stroke-miterlimit:4;stroke-opacity:1;stroke-dasharray:none;stroke-dashoffset:0"
       id="gBorde"
       width="320"
       height="320"
       x="3.3601072"
       y="2.8613105"
       inkscape:label="gBorde" />
    <rect
       style="stroke:#000000;stroke-width:3.65803671000000020;stroke-linecap:butt;stroke-linejoin:bevel;stroke-miterlimit:4;stroke-opacity:1;stroke-dasharray:none;stroke-dashoffset:0;fill-opacity:1"
       id="caraCentral"
       fill="{{pintar}}"
       width="123.04196"
       height="120.18482"
       x="98.36692"
       y="101.87413"
       inkscape:label="#rect6869"
       ng-click="seleccionarCara(4)">
      <desc
         id="desc6918">Cara central del diente</desc>
    </rect>
    <g
       id="gCaraIzquierda"
       inkscape:label="gCaraIzquierda"
       transform="translate(0.71689059,-2.8675623)">
      <path
         inkscape:label="cIzq"
         sodipodi:nodetypes="ccccc"
         inkscape:connector-curvature="0"
         id="caraIzquierda"
         d="M 90.357132,227.00504 91.071422,101.29074 9.6428512,18.433612 8.2142855,312.71932 z"
         style="fill:none;stroke:#000000;stroke-width:1px;stroke-linecap:butt;stroke-linejoin:miter;stroke-opacity:1">
        <desc
           id="desc6930">Cara izquierda del diente</desc>
      </path>
      <path
         d="m 66.670067,168.98378 c 0,8.08943 -7.236172,14.64721 -16.162441,14.64721 -8.92627,0 -16.162442,-6.55778 -16.162442,-14.64721 0,-8.08943 7.236172,-14.64721 16.162442,-14.64721 8.926269,0 16.162441,6.55778 16.162441,14.64721 z"
         sodipodi:ry="14.647212"
         sodipodi:rx="16.162441"
         sodipodi:cy="168.98378"
         sodipodi:cx="50.507626"
         id="arregloIzq"
         style="fill:#0000df;fill-opacity:1;stroke:#0000ff;stroke-width:3.70000005;stroke-linecap:butt;stroke-linejoin:bevel;stroke-miterlimit:4;stroke-opacity:1;stroke-dasharray:none;stroke-dashoffset:0"
         sodipodi:type="arc" />
    </g>
    <g
       id="gCaraDerecha"
       inkscape:label="gCaraDerecha"
       transform="translate(-2.1506718,0)">
      <path
         inkscape:label="cDerecha"
         sodipodi:nodetypes="ccccc"
         inkscape:connector-curvature="0"
         id="caraDerecha"
         d="m 228.57143,220.21932 0,-118.57144 89.28572,-84.999984 -2.14287,291.428564 z"
         style="fill:none;stroke:#000000;stroke-width:1px;stroke-linecap:butt;stroke-linejoin:miter;stroke-opacity:1">
        <desc
           id="desc6928">Cara derecha del diente
</desc>
      </path>
      <path
         d="m 66.670067,168.98378 c 0,8.08943 -7.236172,14.64721 -16.162441,14.64721 -8.92627,0 -16.162442,-6.55778 -16.162442,-14.64721 0,-8.08943 7.236172,-14.64721 16.162442,-14.64721 8.926269,0 16.162441,6.55778 16.162441,14.64721 z"
         sodipodi:ry="14.647212"
         sodipodi:rx="16.162441"
         sodipodi:cy="168.98378"
         sodipodi:cx="50.507626"
         id="arregloDerecho"
         style="fill:#0000df;fill-opacity:1;stroke:#0000ff;stroke-width:3.70000005;stroke-linecap:butt;stroke-linejoin:bevel;stroke-miterlimit:4;stroke-opacity:1;stroke-dasharray:none;stroke-dashoffset:0"
         sodipodi:type="arc"
         transform="translate(228.29447,0.50507807)" />
    </g>
    <g
       id="gCaraSuperior"
       inkscape:label="gCaraSuperior">
      <path
         inkscape:label="cSuperior"
         sodipodi:nodetypes="ccccc"
         inkscape:connector-curvature="0"
         id="caraSuperior"
         d="M 97.615357,95.566661 224.04596,95.568714 314.52611,11.080007 10.955497,10.074286 z"
         style="fill:none;stroke:#000000;stroke-width:1px;stroke-linecap:butt;stroke-linejoin:miter;stroke-opacity:1">
        <desc
           id="desc6934">Cara superior del diente</desc>
      </path>
      <path
         d="m 66.670067,168.98378 a 16.162441,14.647212 0 1 1 -32.324883,0 16.162441,14.647212 0 1 1 32.324883,0 z"
         sodipodi:ry="14.647212"
         sodipodi:rx="16.162441"
         sodipodi:cy="168.98378"
         sodipodi:cx="50.507626"
         id="arregloSuperior"
         style="fill:#0000df;fill-opacity:1;stroke:#0000ff;stroke-width:3.70000005;stroke-linecap:butt;stroke-linejoin:bevel;stroke-miterlimit:4;stroke-opacity:1;stroke-dasharray:none;stroke-dashoffset:0"
         sodipodi:type="arc"
         transform="translate(111.11678,-117.68277)" />
    </g>
    <g
       id="gCaraInferior"
       inkscape:label="gCaraInferior"
       transform="translate(0.71689059,-2.1506718)">
      <path
         inkscape:label="cInferior"
         sodipodi:nodetypes="ccccc"
         inkscape:connector-curvature="0"
         id="caraInferior"
         d="m 96.428571,228.79076 127.142859,-0.71429 90,90 -304.2857157,0 z"
         style="fill:none;stroke:#000000;stroke-width:1px;stroke-linecap:butt;stroke-linejoin:miter;stroke-opacity:1">
        <desc
           id="desc6932">Cara inferior del diente.</desc>
      </path>
      <path
         d="m 66.670067,168.98378 c 0,8.08943 -7.236172,14.64721 -16.162441,14.64721 -8.92627,0 -16.162442,-6.55778 -16.162442,-14.64721 0,-8.08943 7.236172,-14.64721 16.162442,-14.64721 8.926269,0 16.162441,6.55778 16.162441,14.64721 z"
         sodipodi:ry="14.647212"
         sodipodi:rx="16.162441"
         sodipodi:cy="168.98378"
         sodipodi:cx="50.507626"
         id="arregloInferior"
         style="fill:#0000df;fill-opacity:1;stroke:#0000ff;stroke-width:3.70000005;stroke-linecap:butt;stroke-linejoin:bevel;stroke-miterlimit:4;stroke-opacity:1;stroke-dasharray:none;stroke-dashoffset:0"
         sodipodi:type="arc"
         transform="translate(112.12693,101.52033)" />
    </g>
  </g>
</svg>


<?xml version="1.0" encoding="UTF-8" standalone="no"?>
<!-- Created with Inkscape (http://www.inkscape.org/) -->

<svg
   xmlns:dc="http://purl.org/dc/elements/1.1/"
   xmlns:cc="http://creativecommons.org/ns#"
   xmlns:rdf="http://www.w3.org/1999/02/22-rdf-syntax-ns#"
   xmlns:svg="http://www.w3.org/2000/svg"
   xmlns="http://www.w3.org/2000/svg"
   xmlns:sodipodi="http://sodipodi.sourceforge.net/DTD/sodipodi-0.dtd"
   xmlns:inkscape="http://www.inkscape.org/namespaces/inkscape"
   width="210mm"
   height="297mm"
   id="svg2"
   version="1.1"
   inkscape:version="0.48.5 r10040"
   sodipodi:docname="diente.svg">

	 <g class="cara" id="PD">
	 <path
       sodipodi:type="arc"
       sodipodi:cx="481.48148"
       sodipodi:cy="544.95477"
       sodipodi:rx="18.518518"
       sodipodi:ry="22.222221"
       d="m 499.99999,544.95477 a 18.518518,22.222221 0 1 1 -37.03703,0 18.518518,22.222221 0 1 1 37.03703,0 z"
       transform="matrix(1.2361174,0,0,1,-118.05872,0)"/>
  <rect
     width="311.42856"
     height="302.85715"
     x="219.00423"
     y="397.74356"
     transform="matrix(0.9999633,0.00856699,-0.00856699,0.9999633,0,0)"
     class="cara" />
	 </g>
	 <g id="CC" class="cara">
	 <path
       sodipodi:type="arc"
       sodipodi:cx="481.48148"
       sodipodi:cy="544.95477"
       sodipodi:rx="18.518518"
       sodipodi:ry="22.222221"
       d="m 499.99999,544.95477 a 18.518518,22.222221 0 1 1 -37.03703,0 18.518518,22.222221 0 1 1 37.03703,0 z"
       transform="matrix(1.2361174,0,0,1,-118.05872,0)"/>
  <rect
     width="130.7459"
     height="130.23091"
     x="301.00055"
     y="482.44916" />
	 </g>
	 <g id="CIZ" class="cara">
	     <path
       sodipodi:type="arc"
       sodipodi:cx="481.48148"
       sodipodi:cy="544.95477"
       sodipodi:rx="18.518518"
       sodipodi:ry="22.222221"
       d="m 499.99999,544.95477 a 18.518518,22.222221 0 1 1 -37.03703,0 18.518518,22.222221 0 1 1 37.03703,0 z"
       transform="matrix(1.2361174,0,0,1,-118.05872,0)"/>
  <path
     d="m 228.57143,420.93361 60,60 2.85714,128.57143 -65.71428,80 z"
     inkscape:connector-curvature="0"/>
	 </g>

  <g id="CD" class="cara">
    <path
       sodipodi:type="arc"
       sodipodi:cx="481.48148"
       sodipodi:cy="544.95477"
       sodipodi:rx="18.518518"
       sodipodi:ry="22.222221"
       d="m 499.99999,544.95477 a 18.518518,22.222221 0 1 1 -37.03703,0 18.518518,22.222221 0 1 1 37.03703,0 z"
       transform="matrix(1.2361174,0,0,1,-118.05872,0)"/>
    <path
       inkscape:label="#caraDerecha"
       sodipodi:nodetypes="ccccc"
       inkscape:connector-curvature="0"
       d="m 510.15763,417.11567 -65.60501,67.20553 -3.12404,128.9098 71.85309,79.13118 z"/>
  </g>
  <g class="cara" id="CS">
      <path
       sodipodi:type="arc"
       sodipodi:cx="481.48148"
       sodipodi:cy="544.95477"
       sodipodi:rx="18.518518"
       sodipodi:ry="22.222221"
       d="m 499.99999,544.95477 a 18.518518,22.222221 0 1 1 -37.03703,0 18.518518,22.222221 0 1 1 37.03703,0 z"
       transform="matrix(1.2361174,0,0,1,-118.05872,0)"/>
  <path
     d="m 240,415.21932 62.85714,57.14287 137.14286,-10e-6 60,-60 z"
     inkscape:connector-curvature="0"
     sodipodi:nodetypes="ccccc"/>
	 </g>
	 <g class="cara" id="CI">
	 <path
       sodipodi:type="arc"
       sodipodi:cx="481.48148"
       sodipodi:cy="544.95477"
       sodipodi:rx="18.518518"
       sodipodi:ry="22.222221"
       d="m 499.99999,544.95477 a 18.518518,22.222221 0 1 1 -37.03703,0 18.518518,22.222221 0 1 1 37.03703,0 z"
       transform="matrix(1.2361174,0,0,1,-118.05872,0)"/>
  <path
     d="m 235.71429,690.6741 62.85714,-68.86983 137.14286,10e-6 68.57143,69.5476 z"
     id="CI"
     inkscape:connector-curvature="0"
     sodipodi:nodetypes="ccccc"/>
	 </g>
</svg>

