<?xml version="1.0" encoding="UTF-8" standalone="no"?>
<!-- Created with Inkscape (http://www.inkscape.org/) -->

<svg
   xmlns:svg="http://www.w3.org/2000/svg"
   xmlns="http://www.w3.org/2000/svg"
   id="svg2"
   version="0.48.5 r10040"
   width="100%"
   height="100%">

  <g
     id="DS"
     class="cara">
    <polygon
       style="fill:#ffffff;stroke:#000080;stroke-width:0.5"
       id="polygon3023"
       points="20,0 15,5 5,5 0,0 " />
  </g>
  <g
     id="DI"
     class="cara">
	 <path
     style="fill:#ff0000;fill-opacity:1;fill-rule:nonzero;stroke:#000000;stroke-width:0.40000001;stroke-miterlimit:4;stroke-opacity:1;stroke-dasharray:none"
     id="CI"
     d="m 17.621145,27.472315 a 2.3127754,2.2026432 0 1 1 -4.625551,0 2.3127754,2.2026432 0 1 1 4.625551,0 z"/>
 
    <polygon
       style="fill:#ffffff;stroke:#000080;stroke-width:0.5"
       id="polygon3027"
       points="15,15 20,20 0,20 5,15 " />
  </g>
<g
     id="DD"
     class="cara"">
	     <path
     style="fill:#ff0000;fill-opacity:1;fill-rule:nonzero;stroke:#000000;stroke-width:0.40000001;stroke-miterlimit:4;stroke-opacity:1;stroke-dasharray:none"
     id="CD"
     d="m 17.621145,27.472315 a 2.3127754,2.2026432 0 1 1 -4.625551,0 2.3127754,2.2026432 0 1 1 4.625551,0 z"/>
    <polygon
       style="fill:#ffffff;stroke:#000080;stroke-width:0.5"
       id="polygon3031"
       points="20,0 20,20 15,15 15,5 " />
  </g>
  <g
     id="DIZ"
     class="cara">
	  <path
     style="fill:#ff0000;fill-opacity:1;fill-rule:nonzero;stroke:#000000;stroke-width:0.40000001;stroke-miterlimit:4;stroke-opacity:1;stroke-dasharray:none"
     id="CIZ"
     d="m 17.621145,27.472315 a 2.3127754,2.2026432 0 1 1 -4.625551,0 2.3127754,2.2026432 0 1 1 4.625551,0 z"/>
    <polygon
       style="fill:#ffffff;stroke:#000080;stroke-width:0.5"
       id="polygon3035"
       points="5,5 5,15 0,20 0,0 " />
  </g>
  <g
     id="DC"
     class="cara">
	  <path
     style="fill:#ff0000;fill-opacity:1;fill-rule:nonzero;stroke:#000000;stroke-width:0.40000001;stroke-miterlimit:4;stroke-opacity:1;stroke-dasharray:none"
     id="CC"
     d="m 17.621145,27.472315 a 2.3127754,2.2026432 0 1 1 -4.625551,0 2.3127754,2.2026432 0 1 1 4.625551,0 z" />
    <polygon
       style="fill:#ffffff;stroke:#000080;stroke-width:0.5"
       id="polygon3039"
       points="15,5 15,15 5,15 5,5 " />
  </g>
  <g
     id="PD"
     class="cara">
    <text
       id="text3043"
       style="font-size:7.5px;font-weight:normal;fill:#000080;stroke:#000080;stroke-width:0.1"
       y="30"
       x="6">18</text>
  </g>
  
  <path
     style="fill:#ff0000;fill-opacity:1;fill-rule:nonzero;stroke:#000000;stroke-width:0.40000001;stroke-miterlimit:4;stroke-opacity:1;stroke-dasharray:none"
     id="CS"
     d="m 17.621145,27.472315 a 2.3127754,2.2026432 0 1 1 -4.625551,0 2.3127754,2.2026432 0 1 1 4.625551,0 z"/>

</svg>
